<?xml version="1.0" encoding="utf-8" standalone="no"?>
<!DOCTYPE svg PUBLIC "-//W3C//DTD SVG 1.1//EN"
  "http://www.w3.org/Graphics/SVG/1.1/DTD/svg11.dtd">
<svg xmlns:xlink="http://www.w3.org/1999/xlink" width="408.10125pt" height="325.986375pt" viewBox="0 0 408.10125 325.986375" xmlns="http://www.w3.org/2000/svg" version="1.1">
 <metadata>
  <rdf:RDF xmlns:dc="http://purl.org/dc/elements/1.1/" xmlns:cc="http://creativecommons.org/ns#" xmlns:rdf="http://www.w3.org/1999/02/22-rdf-syntax-ns#">
   <cc:Work>
    <dc:type rdf:resource="http://purl.org/dc/dcmitype/StillImage"/>
    <dc:date>2025-03-29T12:01:23.130870</dc:date>
    <dc:format>image/svg+xml</dc:format>
    <dc:creator>
     <cc:Agent>
      <dc:title>Matplotlib v3.9.2, https://matplotlib.org/</dc:title>
     </cc:Agent>
    </dc:creator>
   </cc:Work>
  </rdf:RDF>
 </metadata>
 <defs>
  <style type="text/css">*{stroke-linejoin: round; stroke-linecap: butt}</style>
 </defs>
 <g id="figure_1">
  <g id="patch_1">
   <path d="M 0 325.986375 
L 408.10125 325.986375 
L 408.10125 0 
L 0 0 
z
" style="fill: #ffffff"/>
  </g>
  <g id="axes_1">
   <g id="patch_2">
    <path d="M 43.78125 288.430125 
L 400.90125 288.430125 
L 400.90125 22.318125 
L 43.78125 22.318125 
z
" style="fill: #ffffff"/>
   </g>
   <g id="matplotlib.axis_1">
    <g id="xtick_1">
     <g id="line2d_1">
      <path d="M 60.013977 288.430125 
L 60.013977 22.318125 
" clip-path="url(#p3ce8c0408e)" style="fill: none; stroke: #b0b0b0; stroke-width: 0.8; stroke-linecap: square"/>
     </g>
     <g id="line2d_2">
      <defs>
       <path id="m80df7391ac" d="M 0 0 
L 0 3.5 
" style="stroke: #000000; stroke-width: 0.8"/>
      </defs>
      <g>
       <use xlink:href="#m80df7391ac" x="60.013977" y="288.430125" style="stroke: #000000; stroke-width: 0.8"/>
      </g>
     </g>
     <g id="text_1">
      <!-- 0.0 -->
      <g transform="translate(52.062415 303.028562) scale(0.1 -0.1)">
       <defs>
        <path id="DejaVuSans-30" d="M 2034 4250 
Q 1547 4250 1301 3770 
Q 1056 3291 1056 2328 
Q 1056 1369 1301 889 
Q 1547 409 2034 409 
Q 2525 409 2770 889 
Q 3016 1369 3016 2328 
Q 3016 3291 2770 3770 
Q 2525 4250 2034 4250 
z
M 2034 4750 
Q 2819 4750 3233 4129 
Q 3647 3509 3647 2328 
Q 3647 1150 3233 529 
Q 2819 -91 2034 -91 
Q 1250 -91 836 529 
Q 422 1150 422 2328 
Q 422 3509 836 4129 
Q 1250 4750 2034 4750 
z
" transform="scale(0.015625)"/>
        <path id="DejaVuSans-2e" d="M 684 794 
L 1344 794 
L 1344 0 
L 684 0 
L 684 794 
z
" transform="scale(0.015625)"/>
       </defs>
       <use xlink:href="#DejaVuSans-30"/>
       <use xlink:href="#DejaVuSans-2e" x="63.623047"/>
       <use xlink:href="#DejaVuSans-30" x="95.410156"/>
      </g>
     </g>
    </g>
    <g id="xtick_2">
     <g id="line2d_3">
      <path d="M 170.396523 288.430125 
L 170.396523 22.318125 
" clip-path="url(#p3ce8c0408e)" style="fill: none; stroke: #b0b0b0; stroke-width: 0.8; stroke-linecap: square"/>
     </g>
     <g id="line2d_4">
      <g>
       <use xlink:href="#m80df7391ac" x="170.396523" y="288.430125" style="stroke: #000000; stroke-width: 0.8"/>
      </g>
     </g>
     <g id="text_2">
      <!-- 0.017 -->
      <g transform="translate(156.08246 303.028562) scale(0.1 -0.1)">
       <defs>
        <path id="DejaVuSans-31" d="M 794 531 
L 1825 531 
L 1825 4091 
L 703 3866 
L 703 4441 
L 1819 4666 
L 2450 4666 
L 2450 531 
L 3481 531 
L 3481 0 
L 794 0 
L 794 531 
z
" transform="scale(0.015625)"/>
        <path id="DejaVuSans-37" d="M 525 4666 
L 3525 4666 
L 3525 4397 
L 1831 0 
L 1172 0 
L 2766 4134 
L 525 4134 
L 525 4666 
z
" transform="scale(0.015625)"/>
       </defs>
       <use xlink:href="#DejaVuSans-30"/>
       <use xlink:href="#DejaVuSans-2e" x="63.623047"/>
       <use xlink:href="#DejaVuSans-30" x="95.410156"/>
       <use xlink:href="#DejaVuSans-31" x="159.033203"/>
       <use xlink:href="#DejaVuSans-37" x="222.65625"/>
      </g>
     </g>
    </g>
    <g id="xtick_3">
     <g id="line2d_5">
      <path d="M 274.285977 288.430125 
L 274.285977 22.318125 
" clip-path="url(#p3ce8c0408e)" style="fill: none; stroke: #b0b0b0; stroke-width: 0.8; stroke-linecap: square"/>
     </g>
     <g id="line2d_6">
      <g>
       <use xlink:href="#m80df7391ac" x="274.285977" y="288.430125" style="stroke: #000000; stroke-width: 0.8"/>
      </g>
     </g>
     <g id="text_3">
      <!-- 0.033 -->
      <g transform="translate(259.971915 303.028562) scale(0.1 -0.1)">
       <defs>
        <path id="DejaVuSans-33" d="M 2597 2516 
Q 3050 2419 3304 2112 
Q 3559 1806 3559 1356 
Q 3559 666 3084 287 
Q 2609 -91 1734 -91 
Q 1441 -91 1130 -33 
Q 819 25 488 141 
L 488 750 
Q 750 597 1062 519 
Q 1375 441 1716 441 
Q 2309 441 2620 675 
Q 2931 909 2931 1356 
Q 2931 1769 2642 2001 
Q 2353 2234 1838 2234 
L 1294 2234 
L 1294 2753 
L 1863 2753 
Q 2328 2753 2575 2939 
Q 2822 3125 2822 3475 
Q 2822 3834 2567 4026 
Q 2313 4219 1838 4219 
Q 1578 4219 1281 4162 
Q 984 4106 628 3988 
L 628 4550 
Q 988 4650 1302 4700 
Q 1616 4750 1894 4750 
Q 2613 4750 3031 4423 
Q 3450 4097 3450 3541 
Q 3450 3153 3228 2886 
Q 3006 2619 2597 2516 
z
" transform="scale(0.015625)"/>
       </defs>
       <use xlink:href="#DejaVuSans-30"/>
       <use xlink:href="#DejaVuSans-2e" x="63.623047"/>
       <use xlink:href="#DejaVuSans-30" x="95.410156"/>
       <use xlink:href="#DejaVuSans-33" x="159.033203"/>
       <use xlink:href="#DejaVuSans-33" x="222.65625"/>
      </g>
     </g>
    </g>
    <g id="xtick_4">
     <g id="line2d_7">
      <path d="M 384.668523 288.430125 
L 384.668523 22.318125 
" clip-path="url(#p3ce8c0408e)" style="fill: none; stroke: #b0b0b0; stroke-width: 0.8; stroke-linecap: square"/>
     </g>
     <g id="line2d_8">
      <g>
       <use xlink:href="#m80df7391ac" x="384.668523" y="288.430125" style="stroke: #000000; stroke-width: 0.8"/>
      </g>
     </g>
     <g id="text_4">
      <!-- 0.05 -->
      <g transform="translate(373.53571 303.028562) scale(0.1 -0.1)">
       <defs>
        <path id="DejaVuSans-35" d="M 691 4666 
L 3169 4666 
L 3169 4134 
L 1269 4134 
L 1269 2991 
Q 1406 3038 1543 3061 
Q 1681 3084 1819 3084 
Q 2600 3084 3056 2656 
Q 3513 2228 3513 1497 
Q 3513 744 3044 326 
Q 2575 -91 1722 -91 
Q 1428 -91 1123 -41 
Q 819 9 494 109 
L 494 744 
Q 775 591 1075 516 
Q 1375 441 1709 441 
Q 2250 441 2565 725 
Q 2881 1009 2881 1497 
Q 2881 1984 2565 2268 
Q 2250 2553 1709 2553 
Q 1456 2553 1204 2497 
Q 953 2441 691 2322 
L 691 4666 
z
" transform="scale(0.015625)"/>
       </defs>
       <use xlink:href="#DejaVuSans-30"/>
       <use xlink:href="#DejaVuSans-2e" x="63.623047"/>
       <use xlink:href="#DejaVuSans-30" x="95.410156"/>
       <use xlink:href="#DejaVuSans-35" x="159.033203"/>
      </g>
     </g>
    </g>
    <g id="text_5">
     <!-- Current (A) -->
     <g transform="translate(194.65375 316.706687) scale(0.1 -0.1)">
      <defs>
       <path id="DejaVuSans-43" d="M 4122 4306 
L 4122 3641 
Q 3803 3938 3442 4084 
Q 3081 4231 2675 4231 
Q 1875 4231 1450 3742 
Q 1025 3253 1025 2328 
Q 1025 1406 1450 917 
Q 1875 428 2675 428 
Q 3081 428 3442 575 
Q 3803 722 4122 1019 
L 4122 359 
Q 3791 134 3420 21 
Q 3050 -91 2638 -91 
Q 1578 -91 968 557 
Q 359 1206 359 2328 
Q 359 3453 968 4101 
Q 1578 4750 2638 4750 
Q 3056 4750 3426 4639 
Q 3797 4528 4122 4306 
z
" transform="scale(0.015625)"/>
       <path id="DejaVuSans-75" d="M 544 1381 
L 544 3500 
L 1119 3500 
L 1119 1403 
Q 1119 906 1312 657 
Q 1506 409 1894 409 
Q 2359 409 2629 706 
Q 2900 1003 2900 1516 
L 2900 3500 
L 3475 3500 
L 3475 0 
L 2900 0 
L 2900 538 
Q 2691 219 2414 64 
Q 2138 -91 1772 -91 
Q 1169 -91 856 284 
Q 544 659 544 1381 
z
M 1991 3584 
L 1991 3584 
z
" transform="scale(0.015625)"/>
       <path id="DejaVuSans-72" d="M 2631 2963 
Q 2534 3019 2420 3045 
Q 2306 3072 2169 3072 
Q 1681 3072 1420 2755 
Q 1159 2438 1159 1844 
L 1159 0 
L 581 0 
L 581 3500 
L 1159 3500 
L 1159 2956 
Q 1341 3275 1631 3429 
Q 1922 3584 2338 3584 
Q 2397 3584 2469 3576 
Q 2541 3569 2628 3553 
L 2631 2963 
z
" transform="scale(0.015625)"/>
       <path id="DejaVuSans-65" d="M 3597 1894 
L 3597 1613 
L 953 1613 
Q 991 1019 1311 708 
Q 1631 397 2203 397 
Q 2534 397 2845 478 
Q 3156 559 3463 722 
L 3463 178 
Q 3153 47 2828 -22 
Q 2503 -91 2169 -91 
Q 1331 -91 842 396 
Q 353 884 353 1716 
Q 353 2575 817 3079 
Q 1281 3584 2069 3584 
Q 2775 3584 3186 3129 
Q 3597 2675 3597 1894 
z
M 3022 2063 
Q 3016 2534 2758 2815 
Q 2500 3097 2075 3097 
Q 1594 3097 1305 2825 
Q 1016 2553 972 2059 
L 3022 2063 
z
" transform="scale(0.015625)"/>
       <path id="DejaVuSans-6e" d="M 3513 2113 
L 3513 0 
L 2938 0 
L 2938 2094 
Q 2938 2591 2744 2837 
Q 2550 3084 2163 3084 
Q 1697 3084 1428 2787 
Q 1159 2491 1159 1978 
L 1159 0 
L 581 0 
L 581 3500 
L 1159 3500 
L 1159 2956 
Q 1366 3272 1645 3428 
Q 1925 3584 2291 3584 
Q 2894 3584 3203 3211 
Q 3513 2838 3513 2113 
z
" transform="scale(0.015625)"/>
       <path id="DejaVuSans-74" d="M 1172 4494 
L 1172 3500 
L 2356 3500 
L 2356 3053 
L 1172 3053 
L 1172 1153 
Q 1172 725 1289 603 
Q 1406 481 1766 481 
L 2356 481 
L 2356 0 
L 1766 0 
Q 1100 0 847 248 
Q 594 497 594 1153 
L 594 3053 
L 172 3053 
L 172 3500 
L 594 3500 
L 594 4494 
L 1172 4494 
z
" transform="scale(0.015625)"/>
       <path id="DejaVuSans-20" transform="scale(0.015625)"/>
       <path id="DejaVuSans-28" d="M 1984 4856 
Q 1566 4138 1362 3434 
Q 1159 2731 1159 2009 
Q 1159 1288 1364 580 
Q 1569 -128 1984 -844 
L 1484 -844 
Q 1016 -109 783 600 
Q 550 1309 550 2009 
Q 550 2706 781 3412 
Q 1013 4119 1484 4856 
L 1984 4856 
z
" transform="scale(0.015625)"/>
       <path id="DejaVuSans-41" d="M 2188 4044 
L 1331 1722 
L 3047 1722 
L 2188 4044 
z
M 1831 4666 
L 2547 4666 
L 4325 0 
L 3669 0 
L 3244 1197 
L 1141 1197 
L 716 0 
L 50 0 
L 1831 4666 
z
" transform="scale(0.015625)"/>
       <path id="DejaVuSans-29" d="M 513 4856 
L 1013 4856 
Q 1481 4119 1714 3412 
Q 1947 2706 1947 2009 
Q 1947 1309 1714 600 
Q 1481 -109 1013 -844 
L 513 -844 
Q 928 -128 1133 580 
Q 1338 1288 1338 2009 
Q 1338 2731 1133 3434 
Q 928 4138 513 4856 
z
" transform="scale(0.015625)"/>
      </defs>
      <use xlink:href="#DejaVuSans-43"/>
      <use xlink:href="#DejaVuSans-75" x="69.824219"/>
      <use xlink:href="#DejaVuSans-72" x="133.203125"/>
      <use xlink:href="#DejaVuSans-72" x="172.566406"/>
      <use xlink:href="#DejaVuSans-65" x="211.429688"/>
      <use xlink:href="#DejaVuSans-6e" x="272.953125"/>
      <use xlink:href="#DejaVuSans-74" x="336.332031"/>
      <use xlink:href="#DejaVuSans-20" x="375.541016"/>
      <use xlink:href="#DejaVuSans-28" x="407.328125"/>
      <use xlink:href="#DejaVuSans-41" x="446.341797"/>
      <use xlink:href="#DejaVuSans-29" x="514.75"/>
     </g>
    </g>
   </g>
   <g id="matplotlib.axis_2">
    <g id="ytick_1">
     <g id="line2d_9">
      <path d="M 43.78125 276.334125 
L 400.90125 276.334125 
" clip-path="url(#p3ce8c0408e)" style="fill: none; stroke: #b0b0b0; stroke-width: 0.8; stroke-linecap: square"/>
     </g>
     <g id="line2d_10">
      <defs>
       <path id="m1149537c61" d="M 0 0 
L -3.5 0 
" style="stroke: #000000; stroke-width: 0.8"/>
      </defs>
      <g>
       <use xlink:href="#m1149537c61" x="43.78125" y="276.334125" style="stroke: #000000; stroke-width: 0.8"/>
      </g>
     </g>
     <g id="text_6">
      <!-- 0.0 -->
      <g transform="translate(20.878125 280.133344) scale(0.1 -0.1)">
       <use xlink:href="#DejaVuSans-30"/>
       <use xlink:href="#DejaVuSans-2e" x="63.623047"/>
       <use xlink:href="#DejaVuSans-30" x="95.410156"/>
      </g>
     </g>
    </g>
    <g id="ytick_2">
     <g id="line2d_11">
      <path d="M 43.78125 276.334125 
L 400.90125 276.334125 
" clip-path="url(#p3ce8c0408e)" style="fill: none; stroke: #b0b0b0; stroke-width: 0.8; stroke-linecap: square"/>
     </g>
     <g id="line2d_12">
      <g>
       <use xlink:href="#m1149537c61" x="43.78125" y="276.334125" style="stroke: #000000; stroke-width: 0.8"/>
      </g>
     </g>
     <g id="text_7">
      <!-- 0.0 -->
      <g transform="translate(20.878125 280.133344) scale(0.1 -0.1)">
       <use xlink:href="#DejaVuSans-30"/>
       <use xlink:href="#DejaVuSans-2e" x="63.623047"/>
       <use xlink:href="#DejaVuSans-30" x="95.410156"/>
      </g>
     </g>
    </g>
    <g id="ytick_3">
     <g id="line2d_13">
      <path d="M 43.78125 276.334125 
L 400.90125 276.334125 
" clip-path="url(#p3ce8c0408e)" style="fill: none; stroke: #b0b0b0; stroke-width: 0.8; stroke-linecap: square"/>
     </g>
     <g id="line2d_14">
      <g>
       <use xlink:href="#m1149537c61" x="43.78125" y="276.334125" style="stroke: #000000; stroke-width: 0.8"/>
      </g>
     </g>
     <g id="text_8">
      <!-- 0.0 -->
      <g transform="translate(20.878125 280.133344) scale(0.1 -0.1)">
       <use xlink:href="#DejaVuSans-30"/>
       <use xlink:href="#DejaVuSans-2e" x="63.623047"/>
       <use xlink:href="#DejaVuSans-30" x="95.410156"/>
      </g>
     </g>
    </g>
    <g id="ytick_4">
     <g id="line2d_15">
      <path d="M 43.78125 276.334125 
L 400.90125 276.334125 
" clip-path="url(#p3ce8c0408e)" style="fill: none; stroke: #b0b0b0; stroke-width: 0.8; stroke-linecap: square"/>
     </g>
     <g id="line2d_16">
      <g>
       <use xlink:href="#m1149537c61" x="43.78125" y="276.334125" style="stroke: #000000; stroke-width: 0.8"/>
      </g>
     </g>
     <g id="text_9">
      <!-- 0.0 -->
      <g transform="translate(20.878125 280.133344) scale(0.1 -0.1)">
       <use xlink:href="#DejaVuSans-30"/>
       <use xlink:href="#DejaVuSans-2e" x="63.623047"/>
       <use xlink:href="#DejaVuSans-30" x="95.410156"/>
      </g>
     </g>
    </g>
    <g id="ytick_5">
     <g id="line2d_17">
      <path d="M 43.78125 276.334125 
L 400.90125 276.334125 
" clip-path="url(#p3ce8c0408e)" style="fill: none; stroke: #b0b0b0; stroke-width: 0.8; stroke-linecap: square"/>
     </g>
     <g id="line2d_18">
      <g>
       <use xlink:href="#m1149537c61" x="43.78125" y="276.334125" style="stroke: #000000; stroke-width: 0.8"/>
      </g>
     </g>
     <g id="text_10">
      <!-- 0.0 -->
      <g transform="translate(20.878125 280.133344) scale(0.1 -0.1)">
       <use xlink:href="#DejaVuSans-30"/>
       <use xlink:href="#DejaVuSans-2e" x="63.623047"/>
       <use xlink:href="#DejaVuSans-30" x="95.410156"/>
      </g>
     </g>
    </g>
    <g id="text_11">
     <!-- Power (dBm) -->
     <g transform="translate(14.798438 187.453812) rotate(-90) scale(0.1 -0.1)">
      <defs>
       <path id="DejaVuSans-50" d="M 1259 4147 
L 1259 2394 
L 2053 2394 
Q 2494 2394 2734 2622 
Q 2975 2850 2975 3272 
Q 2975 3691 2734 3919 
Q 2494 4147 2053 4147 
L 1259 4147 
z
M 628 4666 
L 2053 4666 
Q 2838 4666 3239 4311 
Q 3641 3956 3641 3272 
Q 3641 2581 3239 2228 
Q 2838 1875 2053 1875 
L 1259 1875 
L 1259 0 
L 628 0 
L 628 4666 
z
" transform="scale(0.015625)"/>
       <path id="DejaVuSans-6f" d="M 1959 3097 
Q 1497 3097 1228 2736 
Q 959 2375 959 1747 
Q 959 1119 1226 758 
Q 1494 397 1959 397 
Q 2419 397 2687 759 
Q 2956 1122 2956 1747 
Q 2956 2369 2687 2733 
Q 2419 3097 1959 3097 
z
M 1959 3584 
Q 2709 3584 3137 3096 
Q 3566 2609 3566 1747 
Q 3566 888 3137 398 
Q 2709 -91 1959 -91 
Q 1206 -91 779 398 
Q 353 888 353 1747 
Q 353 2609 779 3096 
Q 1206 3584 1959 3584 
z
" transform="scale(0.015625)"/>
       <path id="DejaVuSans-77" d="M 269 3500 
L 844 3500 
L 1563 769 
L 2278 3500 
L 2956 3500 
L 3675 769 
L 4391 3500 
L 4966 3500 
L 4050 0 
L 3372 0 
L 2619 2869 
L 1863 0 
L 1184 0 
L 269 3500 
z
" transform="scale(0.015625)"/>
       <path id="DejaVuSans-64" d="M 2906 2969 
L 2906 4863 
L 3481 4863 
L 3481 0 
L 2906 0 
L 2906 525 
Q 2725 213 2448 61 
Q 2172 -91 1784 -91 
Q 1150 -91 751 415 
Q 353 922 353 1747 
Q 353 2572 751 3078 
Q 1150 3584 1784 3584 
Q 2172 3584 2448 3432 
Q 2725 3281 2906 2969 
z
M 947 1747 
Q 947 1113 1208 752 
Q 1469 391 1925 391 
Q 2381 391 2643 752 
Q 2906 1113 2906 1747 
Q 2906 2381 2643 2742 
Q 2381 3103 1925 3103 
Q 1469 3103 1208 2742 
Q 947 2381 947 1747 
z
" transform="scale(0.015625)"/>
       <path id="DejaVuSans-42" d="M 1259 2228 
L 1259 519 
L 2272 519 
Q 2781 519 3026 730 
Q 3272 941 3272 1375 
Q 3272 1813 3026 2020 
Q 2781 2228 2272 2228 
L 1259 2228 
z
M 1259 4147 
L 1259 2741 
L 2194 2741 
Q 2656 2741 2882 2914 
Q 3109 3088 3109 3444 
Q 3109 3797 2882 3972 
Q 2656 4147 2194 4147 
L 1259 4147 
z
M 628 4666 
L 2241 4666 
Q 2963 4666 3353 4366 
Q 3744 4066 3744 3513 
Q 3744 3084 3544 2831 
Q 3344 2578 2956 2516 
Q 3422 2416 3680 2098 
Q 3938 1781 3938 1306 
Q 3938 681 3513 340 
Q 3088 0 2303 0 
L 628 0 
L 628 4666 
z
" transform="scale(0.015625)"/>
       <path id="DejaVuSans-6d" d="M 3328 2828 
Q 3544 3216 3844 3400 
Q 4144 3584 4550 3584 
Q 5097 3584 5394 3201 
Q 5691 2819 5691 2113 
L 5691 0 
L 5113 0 
L 5113 2094 
Q 5113 2597 4934 2840 
Q 4756 3084 4391 3084 
Q 3944 3084 3684 2787 
Q 3425 2491 3425 1978 
L 3425 0 
L 2847 0 
L 2847 2094 
Q 2847 2600 2669 2842 
Q 2491 3084 2119 3084 
Q 1678 3084 1418 2786 
Q 1159 2488 1159 1978 
L 1159 0 
L 581 0 
L 581 3500 
L 1159 3500 
L 1159 2956 
Q 1356 3278 1631 3431 
Q 1906 3584 2284 3584 
Q 2666 3584 2933 3390 
Q 3200 3197 3328 2828 
z
" transform="scale(0.015625)"/>
      </defs>
      <use xlink:href="#DejaVuSans-50"/>
      <use xlink:href="#DejaVuSans-6f" x="56.677734"/>
      <use xlink:href="#DejaVuSans-77" x="117.859375"/>
      <use xlink:href="#DejaVuSans-65" x="199.646484"/>
      <use xlink:href="#DejaVuSans-72" x="261.169922"/>
      <use xlink:href="#DejaVuSans-20" x="302.283203"/>
      <use xlink:href="#DejaVuSans-28" x="334.070312"/>
      <use xlink:href="#DejaVuSans-64" x="373.083984"/>
      <use xlink:href="#DejaVuSans-42" x="436.560547"/>
      <use xlink:href="#DejaVuSans-6d" x="505.164062"/>
      <use xlink:href="#DejaVuSans-29" x="602.576172"/>
     </g>
    </g>
   </g>
   <g id="line2d_19">
    <path d="M 60.013977 276.334125 
L 63.260523 276.334125 
L 66.507068 276.334125 
L 69.753614 276.334125 
L 73.000159 276.334125 
L 76.246705 276.334125 
L 79.49325 276.334125 
L 82.739795 276.334125 
L 85.986341 276.334125 
L 89.232886 276.334125 
L 92.479432 276.334125 
L 95.725977 276.334125 
L 98.972523 276.334125 
L 102.219068 276.334125 
L 105.465614 276.334125 
L 108.712159 276.334125 
L 111.958705 276.334125 
L 115.20525 276.334125 
L 118.451795 276.334125 
L 121.698341 276.334125 
L 124.944886 276.334125 
L 128.191432 276.334125 
L 131.437977 276.334125 
L 134.684523 275.261258 
L 137.931068 270.269698 
L 141.177614 272.922952 
L 144.424159 264.354512 
L 147.670705 263.54026 
L 150.91725 253.260078 
L 154.163795 266.347039 
L 157.410341 247.955146 
L 160.656886 252.315078 
L 163.903432 273.000891 
L 167.149977 267.165003 
L 170.396523 272.957189 
L 173.643068 276.334125 
L 176.889614 258.950763 
L 180.136159 238.514887 
L 183.382705 231.978595 
L 186.62925 243.82399 
L 189.875795 229.278909 
L 193.122341 253.363026 
L 196.368886 232.422777 
L 199.615432 237.064589 
L 202.861977 206.952451 
L 206.108523 219.126914 
L 209.355068 219.611833 
L 212.601614 200.972063 
L 215.848159 174.652197 
L 219.094705 177.235239 
L 222.34125 222.483621 
L 225.587795 145.679203 
L 228.834341 178.469942 
L 232.080886 207.312882 
L 235.327432 170.725406 
L 238.573977 183.262826 
L 241.820523 254.824157 
L 245.067068 261.122039 
L 248.313614 271.833884 
L 251.560159 256.919063 
L 254.806705 266.837774 
L 258.05325 240.851906 
L 261.299795 242.79963 
L 264.546341 248.052343 
L 267.792886 206.355602 
L 271.039432 247.019876 
L 274.285977 216.724859 
L 277.532523 227.404287 
L 280.779068 221.550499 
L 284.025614 193.220778 
L 287.272159 216.282637 
L 290.518705 149.830849 
L 293.76525 208.107832 
L 297.011795 186.352926 
L 300.258341 226.379377 
L 303.504886 216.972228 
L 306.751432 195.812455 
L 309.997977 206.606034 
L 313.244523 224.299219 
L 316.491068 250.573537 
L 319.737614 182.03693 
L 322.984159 159.567219 
L 326.230705 159.218788 
L 329.47725 222.792965 
L 332.723795 111.176445 
L 335.970341 254.577438 
L 339.216886 231.233582 
L 342.463432 34.414125 
L 345.709977 162.532419 
L 348.956523 234.348002 
L 352.203068 220.201316 
L 355.449614 244.259117 
L 358.696159 176.54625 
L 361.942705 183.020562 
L 365.18925 108.784765 
L 368.435795 199.277005 
L 371.682341 148.891481 
L 374.928886 132.671177 
L 378.175432 218.580563 
L 381.421977 187.89595 
L 384.668523 47.844874 
" clip-path="url(#p3ce8c0408e)" style="fill: none; stroke: #000004; stroke-width: 1.5; stroke-linecap: square"/>
    <defs>
     <path id="m7804b5bead" d="M 0 3 
C 0.795609 3 1.55874 2.683901 2.12132 2.12132 
C 2.683901 1.55874 3 0.795609 3 0 
C 3 -0.795609 2.683901 -1.55874 2.12132 -2.12132 
C 1.55874 -2.683901 0.795609 -3 0 -3 
C -0.795609 -3 -1.55874 -2.683901 -2.12132 -2.12132 
C -2.683901 -1.55874 -3 -0.795609 -3 0 
C -3 0.795609 -2.683901 1.55874 -2.12132 2.12132 
C -1.55874 2.683901 -0.795609 3 0 3 
z
" style="stroke: #000004"/>
    </defs>
    <g clip-path="url(#p3ce8c0408e)">
     <use xlink:href="#m7804b5bead" x="60.013977" y="276.334125" style="fill: #000004; stroke: #000004"/>
     <use xlink:href="#m7804b5bead" x="63.260523" y="276.334125" style="fill: #000004; stroke: #000004"/>
     <use xlink:href="#m7804b5bead" x="66.507068" y="276.334125" style="fill: #000004; stroke: #000004"/>
     <use xlink:href="#m7804b5bead" x="69.753614" y="276.334125" style="fill: #000004; stroke: #000004"/>
     <use xlink:href="#m7804b5bead" x="73.000159" y="276.334125" style="fill: #000004; stroke: #000004"/>
     <use xlink:href="#m7804b5bead" x="76.246705" y="276.334125" style="fill: #000004; stroke: #000004"/>
     <use xlink:href="#m7804b5bead" x="79.49325" y="276.334125" style="fill: #000004; stroke: #000004"/>
     <use xlink:href="#m7804b5bead" x="82.739795" y="276.334125" style="fill: #000004; stroke: #000004"/>
     <use xlink:href="#m7804b5bead" x="85.986341" y="276.334125" style="fill: #000004; stroke: #000004"/>
     <use xlink:href="#m7804b5bead" x="89.232886" y="276.334125" style="fill: #000004; stroke: #000004"/>
     <use xlink:href="#m7804b5bead" x="92.479432" y="276.334125" style="fill: #000004; stroke: #000004"/>
     <use xlink:href="#m7804b5bead" x="95.725977" y="276.334125" style="fill: #000004; stroke: #000004"/>
     <use xlink:href="#m7804b5bead" x="98.972523" y="276.334125" style="fill: #000004; stroke: #000004"/>
     <use xlink:href="#m7804b5bead" x="102.219068" y="276.334125" style="fill: #000004; stroke: #000004"/>
     <use xlink:href="#m7804b5bead" x="105.465614" y="276.334125" style="fill: #000004; stroke: #000004"/>
     <use xlink:href="#m7804b5bead" x="108.712159" y="276.334125" style="fill: #000004; stroke: #000004"/>
     <use xlink:href="#m7804b5bead" x="111.958705" y="276.334125" style="fill: #000004; stroke: #000004"/>
     <use xlink:href="#m7804b5bead" x="115.20525" y="276.334125" style="fill: #000004; stroke: #000004"/>
     <use xlink:href="#m7804b5bead" x="118.451795" y="276.334125" style="fill: #000004; stroke: #000004"/>
     <use xlink:href="#m7804b5bead" x="121.698341" y="276.334125" style="fill: #000004; stroke: #000004"/>
     <use xlink:href="#m7804b5bead" x="124.944886" y="276.334125" style="fill: #000004; stroke: #000004"/>
     <use xlink:href="#m7804b5bead" x="128.191432" y="276.334125" style="fill: #000004; stroke: #000004"/>
     <use xlink:href="#m7804b5bead" x="131.437977" y="276.334125" style="fill: #000004; stroke: #000004"/>
     <use xlink:href="#m7804b5bead" x="134.684523" y="275.261258" style="fill: #000004; stroke: #000004"/>
     <use xlink:href="#m7804b5bead" x="137.931068" y="270.269698" style="fill: #000004; stroke: #000004"/>
     <use xlink:href="#m7804b5bead" x="141.177614" y="272.922952" style="fill: #000004; stroke: #000004"/>
     <use xlink:href="#m7804b5bead" x="144.424159" y="264.354512" style="fill: #000004; stroke: #000004"/>
     <use xlink:href="#m7804b5bead" x="147.670705" y="263.54026" style="fill: #000004; stroke: #000004"/>
     <use xlink:href="#m7804b5bead" x="150.91725" y="253.260078" style="fill: #000004; stroke: #000004"/>
     <use xlink:href="#m7804b5bead" x="154.163795" y="266.347039" style="fill: #000004; stroke: #000004"/>
     <use xlink:href="#m7804b5bead" x="157.410341" y="247.955146" style="fill: #000004; stroke: #000004"/>
     <use xlink:href="#m7804b5bead" x="160.656886" y="252.315078" style="fill: #000004; stroke: #000004"/>
     <use xlink:href="#m7804b5bead" x="163.903432" y="273.000891" style="fill: #000004; stroke: #000004"/>
     <use xlink:href="#m7804b5bead" x="167.149977" y="267.165003" style="fill: #000004; stroke: #000004"/>
     <use xlink:href="#m7804b5bead" x="170.396523" y="272.957189" style="fill: #000004; stroke: #000004"/>
     <use xlink:href="#m7804b5bead" x="173.643068" y="276.334125" style="fill: #000004; stroke: #000004"/>
     <use xlink:href="#m7804b5bead" x="176.889614" y="258.950763" style="fill: #000004; stroke: #000004"/>
     <use xlink:href="#m7804b5bead" x="180.136159" y="238.514887" style="fill: #000004; stroke: #000004"/>
     <use xlink:href="#m7804b5bead" x="183.382705" y="231.978595" style="fill: #000004; stroke: #000004"/>
     <use xlink:href="#m7804b5bead" x="186.62925" y="243.82399" style="fill: #000004; stroke: #000004"/>
     <use xlink:href="#m7804b5bead" x="189.875795" y="229.278909" style="fill: #000004; stroke: #000004"/>
     <use xlink:href="#m7804b5bead" x="193.122341" y="253.363026" style="fill: #000004; stroke: #000004"/>
     <use xlink:href="#m7804b5bead" x="196.368886" y="232.422777" style="fill: #000004; stroke: #000004"/>
     <use xlink:href="#m7804b5bead" x="199.615432" y="237.064589" style="fill: #000004; stroke: #000004"/>
     <use xlink:href="#m7804b5bead" x="202.861977" y="206.952451" style="fill: #000004; stroke: #000004"/>
     <use xlink:href="#m7804b5bead" x="206.108523" y="219.126914" style="fill: #000004; stroke: #000004"/>
     <use xlink:href="#m7804b5bead" x="209.355068" y="219.611833" style="fill: #000004; stroke: #000004"/>
     <use xlink:href="#m7804b5bead" x="212.601614" y="200.972063" style="fill: #000004; stroke: #000004"/>
     <use xlink:href="#m7804b5bead" x="215.848159" y="174.652197" style="fill: #000004; stroke: #000004"/>
     <use xlink:href="#m7804b5bead" x="219.094705" y="177.235239" style="fill: #000004; stroke: #000004"/>
     <use xlink:href="#m7804b5bead" x="222.34125" y="222.483621" style="fill: #000004; stroke: #000004"/>
     <use xlink:href="#m7804b5bead" x="225.587795" y="145.679203" style="fill: #000004; stroke: #000004"/>
     <use xlink:href="#m7804b5bead" x="228.834341" y="178.469942" style="fill: #000004; stroke: #000004"/>
     <use xlink:href="#m7804b5bead" x="232.080886" y="207.312882" style="fill: #000004; stroke: #000004"/>
     <use xlink:href="#m7804b5bead" x="235.327432" y="170.725406" style="fill: #000004; stroke: #000004"/>
     <use xlink:href="#m7804b5bead" x="238.573977" y="183.262826" style="fill: #000004; stroke: #000004"/>
     <use xlink:href="#m7804b5bead" x="241.820523" y="254.824157" style="fill: #000004; stroke: #000004"/>
     <use xlink:href="#m7804b5bead" x="245.067068" y="261.122039" style="fill: #000004; stroke: #000004"/>
     <use xlink:href="#m7804b5bead" x="248.313614" y="271.833884" style="fill: #000004; stroke: #000004"/>
     <use xlink:href="#m7804b5bead" x="251.560159" y="256.919063" style="fill: #000004; stroke: #000004"/>
     <use xlink:href="#m7804b5bead" x="254.806705" y="266.837774" style="fill: #000004; stroke: #000004"/>
     <use xlink:href="#m7804b5bead" x="258.05325" y="240.851906" style="fill: #000004; stroke: #000004"/>
     <use xlink:href="#m7804b5bead" x="261.299795" y="242.79963" style="fill: #000004; stroke: #000004"/>
     <use xlink:href="#m7804b5bead" x="264.546341" y="248.052343" style="fill: #000004; stroke: #000004"/>
     <use xlink:href="#m7804b5bead" x="267.792886" y="206.355602" style="fill: #000004; stroke: #000004"/>
     <use xlink:href="#m7804b5bead" x="271.039432" y="247.019876" style="fill: #000004; stroke: #000004"/>
     <use xlink:href="#m7804b5bead" x="274.285977" y="216.724859" style="fill: #000004; stroke: #000004"/>
     <use xlink:href="#m7804b5bead" x="277.532523" y="227.404287" style="fill: #000004; stroke: #000004"/>
     <use xlink:href="#m7804b5bead" x="280.779068" y="221.550499" style="fill: #000004; stroke: #000004"/>
     <use xlink:href="#m7804b5bead" x="284.025614" y="193.220778" style="fill: #000004; stroke: #000004"/>
     <use xlink:href="#m7804b5bead" x="287.272159" y="216.282637" style="fill: #000004; stroke: #000004"/>
     <use xlink:href="#m7804b5bead" x="290.518705" y="149.830849" style="fill: #000004; stroke: #000004"/>
     <use xlink:href="#m7804b5bead" x="293.76525" y="208.107832" style="fill: #000004; stroke: #000004"/>
     <use xlink:href="#m7804b5bead" x="297.011795" y="186.352926" style="fill: #000004; stroke: #000004"/>
     <use xlink:href="#m7804b5bead" x="300.258341" y="226.379377" style="fill: #000004; stroke: #000004"/>
     <use xlink:href="#m7804b5bead" x="303.504886" y="216.972228" style="fill: #000004; stroke: #000004"/>
     <use xlink:href="#m7804b5bead" x="306.751432" y="195.812455" style="fill: #000004; stroke: #000004"/>
     <use xlink:href="#m7804b5bead" x="309.997977" y="206.606034" style="fill: #000004; stroke: #000004"/>
     <use xlink:href="#m7804b5bead" x="313.244523" y="224.299219" style="fill: #000004; stroke: #000004"/>
     <use xlink:href="#m7804b5bead" x="316.491068" y="250.573537" style="fill: #000004; stroke: #000004"/>
     <use xlink:href="#m7804b5bead" x="319.737614" y="182.03693" style="fill: #000004; stroke: #000004"/>
     <use xlink:href="#m7804b5bead" x="322.984159" y="159.567219" style="fill: #000004; stroke: #000004"/>
     <use xlink:href="#m7804b5bead" x="326.230705" y="159.218788" style="fill: #000004; stroke: #000004"/>
     <use xlink:href="#m7804b5bead" x="329.47725" y="222.792965" style="fill: #000004; stroke: #000004"/>
     <use xlink:href="#m7804b5bead" x="332.723795" y="111.176445" style="fill: #000004; stroke: #000004"/>
     <use xlink:href="#m7804b5bead" x="335.970341" y="254.577438" style="fill: #000004; stroke: #000004"/>
     <use xlink:href="#m7804b5bead" x="339.216886" y="231.233582" style="fill: #000004; stroke: #000004"/>
     <use xlink:href="#m7804b5bead" x="342.463432" y="34.414125" style="fill: #000004; stroke: #000004"/>
     <use xlink:href="#m7804b5bead" x="345.709977" y="162.532419" style="fill: #000004; stroke: #000004"/>
     <use xlink:href="#m7804b5bead" x="348.956523" y="234.348002" style="fill: #000004; stroke: #000004"/>
     <use xlink:href="#m7804b5bead" x="352.203068" y="220.201316" style="fill: #000004; stroke: #000004"/>
     <use xlink:href="#m7804b5bead" x="355.449614" y="244.259117" style="fill: #000004; stroke: #000004"/>
     <use xlink:href="#m7804b5bead" x="358.696159" y="176.54625" style="fill: #000004; stroke: #000004"/>
     <use xlink:href="#m7804b5bead" x="361.942705" y="183.020562" style="fill: #000004; stroke: #000004"/>
     <use xlink:href="#m7804b5bead" x="365.18925" y="108.784765" style="fill: #000004; stroke: #000004"/>
     <use xlink:href="#m7804b5bead" x="368.435795" y="199.277005" style="fill: #000004; stroke: #000004"/>
     <use xlink:href="#m7804b5bead" x="371.682341" y="148.891481" style="fill: #000004; stroke: #000004"/>
     <use xlink:href="#m7804b5bead" x="374.928886" y="132.671177" style="fill: #000004; stroke: #000004"/>
     <use xlink:href="#m7804b5bead" x="378.175432" y="218.580563" style="fill: #000004; stroke: #000004"/>
     <use xlink:href="#m7804b5bead" x="381.421977" y="187.89595" style="fill: #000004; stroke: #000004"/>
     <use xlink:href="#m7804b5bead" x="384.668523" y="47.844874" style="fill: #000004; stroke: #000004"/>
    </g>
   </g>
   <g id="patch_3">
    <path d="M 43.78125 288.430125 
L 43.78125 22.318125 
" style="fill: none; stroke: #000000; stroke-width: 0.8; stroke-linejoin: miter; stroke-linecap: square"/>
   </g>
   <g id="patch_4">
    <path d="M 400.90125 288.430125 
L 400.90125 22.318125 
" style="fill: none; stroke: #000000; stroke-width: 0.8; stroke-linejoin: miter; stroke-linecap: square"/>
   </g>
   <g id="patch_5">
    <path d="M 43.78125 288.430125 
L 400.90125 288.430125 
" style="fill: none; stroke: #000000; stroke-width: 0.8; stroke-linejoin: miter; stroke-linecap: square"/>
   </g>
   <g id="patch_6">
    <path d="M 43.78125 22.318125 
L 400.90125 22.318125 
" style="fill: none; stroke: #000000; stroke-width: 0.8; stroke-linejoin: miter; stroke-linecap: square"/>
   </g>
   <g id="text_12">
    <!-- Current vs Power - Channel 0 -->
    <g transform="translate(134.84625 16.318125) scale(0.12 -0.12)">
     <defs>
      <path id="DejaVuSans-76" d="M 191 3500 
L 800 3500 
L 1894 563 
L 2988 3500 
L 3597 3500 
L 2284 0 
L 1503 0 
L 191 3500 
z
" transform="scale(0.015625)"/>
      <path id="DejaVuSans-73" d="M 2834 3397 
L 2834 2853 
Q 2591 2978 2328 3040 
Q 2066 3103 1784 3103 
Q 1356 3103 1142 2972 
Q 928 2841 928 2578 
Q 928 2378 1081 2264 
Q 1234 2150 1697 2047 
L 1894 2003 
Q 2506 1872 2764 1633 
Q 3022 1394 3022 966 
Q 3022 478 2636 193 
Q 2250 -91 1575 -91 
Q 1294 -91 989 -36 
Q 684 19 347 128 
L 347 722 
Q 666 556 975 473 
Q 1284 391 1588 391 
Q 1994 391 2212 530 
Q 2431 669 2431 922 
Q 2431 1156 2273 1281 
Q 2116 1406 1581 1522 
L 1381 1569 
Q 847 1681 609 1914 
Q 372 2147 372 2553 
Q 372 3047 722 3315 
Q 1072 3584 1716 3584 
Q 2034 3584 2315 3537 
Q 2597 3491 2834 3397 
z
" transform="scale(0.015625)"/>
      <path id="DejaVuSans-2d" d="M 313 2009 
L 1997 2009 
L 1997 1497 
L 313 1497 
L 313 2009 
z
" transform="scale(0.015625)"/>
      <path id="DejaVuSans-68" d="M 3513 2113 
L 3513 0 
L 2938 0 
L 2938 2094 
Q 2938 2591 2744 2837 
Q 2550 3084 2163 3084 
Q 1697 3084 1428 2787 
Q 1159 2491 1159 1978 
L 1159 0 
L 581 0 
L 581 4863 
L 1159 4863 
L 1159 2956 
Q 1366 3272 1645 3428 
Q 1925 3584 2291 3584 
Q 2894 3584 3203 3211 
Q 3513 2838 3513 2113 
z
" transform="scale(0.015625)"/>
      <path id="DejaVuSans-61" d="M 2194 1759 
Q 1497 1759 1228 1600 
Q 959 1441 959 1056 
Q 959 750 1161 570 
Q 1363 391 1709 391 
Q 2188 391 2477 730 
Q 2766 1069 2766 1631 
L 2766 1759 
L 2194 1759 
z
M 3341 1997 
L 3341 0 
L 2766 0 
L 2766 531 
Q 2569 213 2275 61 
Q 1981 -91 1556 -91 
Q 1019 -91 701 211 
Q 384 513 384 1019 
Q 384 1609 779 1909 
Q 1175 2209 1959 2209 
L 2766 2209 
L 2766 2266 
Q 2766 2663 2505 2880 
Q 2244 3097 1772 3097 
Q 1472 3097 1187 3025 
Q 903 2953 641 2809 
L 641 3341 
Q 956 3463 1253 3523 
Q 1550 3584 1831 3584 
Q 2591 3584 2966 3190 
Q 3341 2797 3341 1997 
z
" transform="scale(0.015625)"/>
      <path id="DejaVuSans-6c" d="M 603 4863 
L 1178 4863 
L 1178 0 
L 603 0 
L 603 4863 
z
" transform="scale(0.015625)"/>
     </defs>
     <use xlink:href="#DejaVuSans-43"/>
     <use xlink:href="#DejaVuSans-75" x="69.824219"/>
     <use xlink:href="#DejaVuSans-72" x="133.203125"/>
     <use xlink:href="#DejaVuSans-72" x="172.566406"/>
     <use xlink:href="#DejaVuSans-65" x="211.429688"/>
     <use xlink:href="#DejaVuSans-6e" x="272.953125"/>
     <use xlink:href="#DejaVuSans-74" x="336.332031"/>
     <use xlink:href="#DejaVuSans-20" x="375.541016"/>
     <use xlink:href="#DejaVuSans-76" x="407.328125"/>
     <use xlink:href="#DejaVuSans-73" x="466.507812"/>
     <use xlink:href="#DejaVuSans-20" x="518.607422"/>
     <use xlink:href="#DejaVuSans-50" x="550.394531"/>
     <use xlink:href="#DejaVuSans-6f" x="607.072266"/>
     <use xlink:href="#DejaVuSans-77" x="668.253906"/>
     <use xlink:href="#DejaVuSans-65" x="750.041016"/>
     <use xlink:href="#DejaVuSans-72" x="811.564453"/>
     <use xlink:href="#DejaVuSans-20" x="852.677734"/>
     <use xlink:href="#DejaVuSans-2d" x="884.464844"/>
     <use xlink:href="#DejaVuSans-20" x="920.548828"/>
     <use xlink:href="#DejaVuSans-43" x="952.335938"/>
     <use xlink:href="#DejaVuSans-68" x="1022.160156"/>
     <use xlink:href="#DejaVuSans-61" x="1085.539062"/>
     <use xlink:href="#DejaVuSans-6e" x="1146.818359"/>
     <use xlink:href="#DejaVuSans-6e" x="1210.197266"/>
     <use xlink:href="#DejaVuSans-65" x="1273.576172"/>
     <use xlink:href="#DejaVuSans-6c" x="1335.099609"/>
     <use xlink:href="#DejaVuSans-20" x="1362.882812"/>
     <use xlink:href="#DejaVuSans-30" x="1394.669922"/>
    </g>
   </g>
  </g>
 </g>
 <defs>
  <clipPath id="p3ce8c0408e">
   <rect x="43.78125" y="22.318125" width="357.12" height="266.112"/>
  </clipPath>
 </defs>
</svg>
